<svg version="1.2" xmlns="http://www.w3.org/2000/svg" viewBox="0 0 1000 1000" width="1000" height="1000">
	<style>
		.s0 { fill: #ffffff;stroke: #000000;stroke-miterlimit:10 } 
		.s1 { fill: #ff8163 } 
	</style>
	<g id="Layer 1">
		<path id="Shape 2" fill-rule="evenodd" class="s0" d="m1761-676v2670h-2454v-2670z"/>
		<path id="Shape 1" fill-rule="evenodd" class="s1" d="m0 515c-284.8 0-515-230.2-515-515 0-284.8 230.2-515 515-515 284.8 0 515 230.2 515 515 0 284.8-230.2 515-515 515z"/>
		<path id="Shape 1 copy" fill-rule="evenodd" class="s1" d="m1000 515c-284.79 0-515-230.2-515-515 0-284.8 230.21-515 515-515 284.8 0 515 230.2 515 515 0 284.8-230.2 515-515 515z"/>
		<path id="Shape 1 copy 2" fill-rule="evenodd" class="s1" d="m1000 1515c-284.79 0-515-230.2-515-515 0-284.79 230.21-515 515-515 284.8 0 515 230.21 515 515 0 284.8-230.2 515-515 515z"/>
		<path id="Shape 1 copy 3" fill-rule="evenodd" class="s1" d="m0 1515c-284.8 0-515-230.2-515-515 0-284.79 230.2-515 515-515 284.8 0 515 230.21 515 515 0 284.8-230.2 515-515 515z"/>
	</g>
</svg>